<?xml version="1.0" standalone="no"?>
<!DOCTYPE svg PUBLIC "-//W3C//DTD SVG 20010904//EN"
 "http://www.w3.org/TR/2001/REC-SVG-20010904/DTD/svg10.dtd">
<svg version="1.0" xmlns="http://www.w3.org/2000/svg"
 width="1217.000000pt" height="1280.000000pt" viewBox="0 0 1217.000000 1280.000000"
 preserveAspectRatio="xMidYMid meet">
<metadata>
Created by potrace 1.15, written by Peter Selinger 2001-2017
</metadata>
<g transform="translate(0.000000,1280.000000) scale(0.100000,-0.100000)"
fill="#000000" stroke="none">
<path d="M6820 12553 c-1219 -54 -2364 -413 -3315 -1038 -653 -430 -1331
-1099 -1752 -1730 -266 -400 -464 -826 -562 -1211 -10 -38 -16 -43 -93 -82
-330 -165 -585 -538 -687 -1002 -30 -139 -61 -411 -61 -545 0 -126 27 -329 61
-451 60 -219 179 -433 345 -618 158 -177 275 -275 654 -546 140 -101 298 -217
350 -259 129 -103 387 -362 494 -496 157 -197 306 -439 322 -525 9 -47 21 -60
55 -60 24 0 32 6 45 37 56 131 88 191 161 300 211 319 565 690 878 922 88 65
92 67 204 90 226 45 509 151 711 266 249 140 442 287 659 499 l143 141 -6 85
c-11 140 -17 154 -79 178 -28 11 -59 23 -68 26 -11 5 -50 -20 -120 -75 -120
-94 -272 -198 -377 -257 -41 -23 -75 -42 -77 -42 -1 0 13 29 31 64 113 212
174 469 174 731 0 128 -30 425 -50 490 -5 17 -14 57 -21 90 -21 108 -71 248
-133 375 -215 439 -627 702 -1033 660 -230 -24 -427 -112 -616 -276 -135 -117
-284 -317 -373 -503 -27 -56 -51 -101 -54 -101 -3 0 -29 49 -57 108 -60 123
-154 271 -220 349 l-46 54 6 147 c31 775 370 1577 957 2267 130 153 419 439
580 573 411 343 911 596 1540 777 428 123 802 181 1245 192 974 24 1757 -220
2354 -733 566 -486 876 -1117 942 -1918 15 -186 6 -596 -16 -756 -132 -955
-711 -1654 -1614 -1950 -80 -26 -208 -62 -284 -80 -163 -38 -157 -31 -157
-181 0 -110 10 -140 59 -181 28 -24 36 -25 220 -32 439 -16 763 -103 1066
-284 547 -328 958 -957 1119 -1712 75 -353 91 -530 91 -985 -1 -408 -8 -502
-61 -765 -145 -731 -555 -1350 -1059 -1602 -183 -92 -346 -129 -560 -130 -221
0 -371 50 -485 162 -102 101 -147 205 -157 360 -11 184 42 343 178 529 l61 85
-12 58 c-7 31 -20 64 -29 72 -9 8 -116 63 -238 121 -193 93 -232 108 -287 112
-210 17 -409 -136 -490 -378 -37 -111 -49 -207 -43 -344 13 -280 118 -507 331
-720 314 -313 742 -458 1257 -425 535 34 997 216 1457 572 130 101 426 393
548 541 486 590 766 1240 859 1997 22 173 31 602 16 766 -60 683 -294 1218
-716 1639 -205 205 -392 338 -660 470 -319 158 -673 255 -1080 295 -66 7 -122
14 -123 15 -2 2 51 31 118 66 320 163 688 408 944 630 120 102 327 314 412
419 413 510 605 1118 555 1755 -55 695 -323 1255 -842 1760 -635 618 -1494
1002 -2499 1115 -306 34 -684 47 -990 33z m-2916 -4438 c450 -132 722 -543
752 -1138 14 -294 -53 -532 -210 -742 -52 -69 -192 -215 -231 -241 -38 -24
-249 -38 -394 -25 -359 32 -631 165 -892 439 -313 327 -508 750 -584 1265 -9
59 -15 113 -13 119 10 29 155 -191 225 -339 40 -86 45 -93 72 -93 28 0 33 7
85 113 94 192 201 332 345 449 133 108 339 198 506 222 78 11 252 -4 339 -29z
m-2820 -162 c-17 -179 -8 -527 21 -733 60 -434 204 -802 432 -1108 131 -176
372 -393 560 -506 281 -168 667 -285 1026 -312 53 -4 97 -7 97 -8 0 -1 -85
-87 -188 -191 -175 -177 -331 -365 -376 -452 -9 -18 -20 -33 -24 -33 -5 0 -16
16 -25 35 -49 102 -210 297 -399 481 -196 190 -331 293 -638 484 -317 197
-460 301 -596 433 -159 152 -254 297 -313 472 -47 141 -56 203 -54 390 4 396
103 697 312 944 46 53 145 141 161 141 4 0 6 -17 4 -37z"/>
<path d="M8155 11241 c-86 -54 -409 -346 -552 -500 -177 -190 -307 -349 -440
-541 -534 -768 -808 -1679 -895 -2975 -22 -336 -15 -1548 12 -2130 18 -377 23
-969 11 -1175 -57 -927 -265 -1601 -654 -2115 -76 -100 -268 -298 -367 -378
-439 -355 -1014 -544 -1746 -576 -454 -19 -776 27 -1033 149 -129 62 -208 118
-292 207 -77 82 -117 148 -155 258 -26 75 -28 91 -28 240 0 147 2 166 27 240
33 100 98 215 173 306 75 92 268 275 387 369 53 41 98 81 101 88 10 23 -6 123
-23 143 -14 17 -680 300 -790 335 -105 33 -290 8 -412 -57 -220 -117 -399
-384 -455 -678 -62 -323 10 -721 181 -1010 73 -122 140 -207 255 -322 341
-343 799 -553 1385 -636 185 -26 772 -26 990 0 1047 125 1896 544 2627 1296
898 923 1324 2073 1268 3426 -16 378 -34 620 -119 1615 -22 256 -57 771 -70
1030 -14 280 -6 1038 13 1210 54 489 137 834 281 1168 119 273 250 468 452
669 79 78 143 147 143 153 0 6 -30 51 -67 100 -58 77 -72 91 -103 96 -19 3
-44 7 -55 9 -12 2 -34 -4 -50 -14z"/>
</g>
</svg>
